# xmcd
#
# Track frame offsets:
#	150
#	20150
#	31789
#	49904
#	68037
#	82551
#	94400
#	109633
#	119159
#	133713
#	152617
#	171579
#	188734
#	203511
#	222469
#	232274
#	250736
#	264440
#	281847
#	297086
#
# Disc length: 4341 seconds
#
# Revision: 0
# Processed by: cddbd v1.5.2PL0 Copyright (c) Steve Scherf et al.
# Submitted via: dBpowerAMP V4.0
#
DISCID=2810f314
DTITLE=Various Artist - Country Sokkie Vol. 1
DYEAR=2002
DGENRE=Country
TTITLE0=All you ever do is bring me down
TTITLE1=Little bitty
TTITLE2=Whose bed have your boots been under
TTITLE3=Amazed
TTITLE4=Summertime blues
TTITLE5=Jolene
TTITLE6=Country roads
TTITLE7=Tennesee waltz
TTITLE8=Good hearted woman
TTITLE9=I believe in you
TTITLE10=Don't be stupid
TTITLE11=(Oh Lord it's) hard to be humble
TTITLE12=My Maria
TTITLE13=Sunday morning coming down
TTITLE14=From a Jack to a king
TTITLE15=That don't impress me much
TTITLE16=I recall a Gypsey woman
TTITLE17=Blue bayou
TTITLE18=Feels so right
TTITLE19=Country Medley:  Rose garden, Me and Bobby, Your my best, Country roads, Oh lonesome
EXTD=
EXTT0=
EXTT1=
EXTT2=
EXTT3=
EXTT4=
EXTT5=
EXTT6=
EXTT7=
EXTT8=
EXTT9=
EXTT10=
EXTT11=
EXTT12=
EXTT13=
EXTT14=
EXTT15=
EXTT16=
EXTT17=
EXTT18=
EXTT19=
PLAYORDER=
